<?xml version="1.0" encoding="UTF-8"?>
<svg xmlns="http://www.w3.org/2000/svg" viewBox="0 0 256 256" width="256" height="256" data-pose="tete" role="img" aria-label="Calc Rush"><title>Calc Rush</title><rect width="256" height="256" rx="60" fill="#4f46e5"></rect><rect x="44" y="46" width="168" height="164" rx="36" fill="#fff"></rect><rect x="64" y="64" width="128" height="74" rx="16" fill="#1e293b"></rect><circle cx="104" cy="98" r="11" fill="#fff"></circle><circle cx="152" cy="98" r="11" fill="#fff"></circle><circle cx="107" cy="100" r="5.2" fill="#1e293b"></circle><circle cx="155" cy="100" r="5.2" fill="#1e293b"></circle><path d="M100 118 Q128 134 156 118" stroke="#fbbf24" stroke-width="6" fill="none" stroke-linecap="round"></path><path d="M176 70 l5 11 11 5 -11 5 -5 11 -5 -11 -11 -5 11 -5 z" fill="#fbbf24"></path><g fill="#c7d2fe"><rect x="64" y="156" width="26" height="20" rx="6"></rect><rect x="98" y="156" width="26" height="20" rx="6"></rect><rect x="132" y="156" width="26" height="20" rx="6"></rect><rect x="64" y="184" width="26" height="18" rx="6"></rect><rect x="98" y="184" width="26" height="18" rx="6"></rect></g><rect x="166" y="156" width="26" height="46" rx="7" fill="#fbbf24"></rect></svg>