<?xml version="1.0" encoding="UTF-8"?>
<svg xmlns="http://www.w3.org/2000/svg" viewBox="0 0 256 256" width="256" height="256" data-pose="joyeux" role="img" aria-label="Rushy"><title>Rushy</title><defs><linearGradient id="rushyGrad" x1="0" y1="0" x2="0" y2="1"><stop offset="0" stop-color="#4f46e5"></stop><stop offset="1" stop-color="#312e81"></stop></linearGradient></defs><rect width="256" height="256" rx="60" fill="url(#rushyGrad)"></rect><g stroke="#fbbf24" stroke-width="7" stroke-linecap="round" opacity="0.9"><line x1="18" y1="96" x2="60" y2="96"></line><line x1="12" y1="128" x2="66" y2="128"></line><line x1="20" y1="160" x2="56" y2="160"></line></g><g transform="rotate(-8 128 132)"><g stroke="#312e81" stroke-width="14" stroke-linecap="round"><path d="M116 158 L104 190"></path><path d="M150 158 L170 184"></path></g><ellipse cx="100" cy="194" rx="17" ry="10" fill="#fbbf24"></ellipse><ellipse cx="176" cy="188" rx="17" ry="10" fill="#fbbf24"></ellipse><path d="M96 118 L72 132" stroke="#312e81" stroke-width="12" stroke-linecap="round"></path><circle cx="68" cy="134" r="9" fill="#fff"></circle><rect x="86" y="54" width="92" height="112" rx="24" fill="#fff"></rect><path d="M172 116 L196 96" stroke="#312e81" stroke-width="12" stroke-linecap="round"></path><circle cx="199" cy="93" r="9" fill="#fff"></circle><rect x="98" y="68" width="68" height="42" rx="11" fill="#1e293b"></rect><circle cx="117" cy="86" r="8.5" fill="#fff"></circle><circle cx="149" cy="86" r="8.5" fill="#fff"></circle><circle cx="119" cy="87" r="4.4" fill="#1e293b"></circle><circle cx="151" cy="87" r="4.4" fill="#1e293b"></circle><path d="M118 99 Q133 110 148 99 Z" fill="#fbbf24"></path><g fill="#c7d2fe"><rect x="98" y="124" width="20" height="16" rx="5"></rect><rect x="122" y="124" width="20" height="16" rx="5"></rect><rect x="98" y="146" width="20" height="12" rx="5"></rect><rect x="122" y="146" width="20" height="12" rx="5"></rect></g><rect x="146" y="124" width="20" height="34" rx="6" fill="#fbbf24"></rect></g><path d="M196 56 l4 9 9 4 -9 4 -4 9 -4 -9 -9 -4 9 -4 z" fill="#fbbf24"></path></svg>